<svg width="208" height="24" viewBox="0 0 208 24" fill="none" xmlns="http://www.w3.org/2000/svg">
<path d="M17.6229 1.18182V23H15.0661L3.17685 5.86932H2.96378V23H0.321733V1.18182H2.87855L14.8104 18.3551H15.0234V1.18182H17.6229ZM41.3187 12.0909C41.3187 14.392 40.9032 16.3807 40.0723 18.0568C39.2413 19.733 38.1014 21.0256 36.6525 21.9347C35.2037 22.8438 33.5488 23.2983 31.688 23.2983C29.8272 23.2983 28.1724 22.8438 26.7235 21.9347C25.2747 21.0256 24.1348 19.733 23.3038 18.0568C22.4728 16.3807 22.0574 14.392 22.0574 12.0909C22.0574 9.78977 22.4728 7.80114 23.3038 6.125C24.1348 4.44886 25.2747 3.15625 26.7235 2.24716C28.1724 1.33807 29.8272 0.883522 31.688 0.883522C33.5488 0.883522 35.2037 1.33807 36.6525 2.24716C38.1014 3.15625 39.2413 4.44886 40.0723 6.125C40.9032 7.80114 41.3187 9.78977 41.3187 12.0909ZM38.7619 12.0909C38.7619 10.2017 38.4458 8.60724 37.8137 7.30753C37.1887 6.00781 36.34 5.02415 35.2676 4.35653C34.2022 3.68892 33.0091 3.35511 31.688 3.35511C30.367 3.35511 29.1703 3.68892 28.0978 4.35653C27.0325 5.02415 26.1838 6.00781 25.5517 7.30753C24.9267 8.60724 24.6142 10.2017 24.6142 12.0909C24.6142 13.9801 24.9267 15.5746 25.5517 16.8743C26.1838 18.174 27.0325 19.1577 28.0978 19.8253C29.1703 20.4929 30.367 20.8267 31.688 20.8267C33.0091 20.8267 34.2022 20.4929 35.2676 19.8253C36.34 19.1577 37.1887 18.174 37.8137 16.8743C38.4458 15.5746 38.7619 13.9801 38.7619 12.0909ZM43.6598 3.52557V1.18182H60.0234V3.52557H53.1626V23H50.5206V3.52557H43.6598ZM64.101 23V1.18182H77.2686V3.52557H66.7431V10.8977H76.5868V13.2415H66.7431V20.6562H77.4391V23H64.101ZM93.9625 6.63636C93.8347 5.55682 93.3162 4.71875 92.4071 4.12216C91.498 3.52557 90.383 3.22727 89.062 3.22727C88.0961 3.22727 87.2509 3.38352 86.5265 3.69602C85.8091 4.00852 85.248 4.43821 84.8432 4.98508C84.4455 5.53196 84.2466 6.15341 84.2466 6.84943C84.2466 7.43182 84.3851 7.93253 84.6621 8.35156C84.9462 8.76349 85.3084 9.10795 85.7488 9.38494C86.1891 9.65483 86.6507 9.87855 87.1337 10.0561C87.6167 10.2266 88.0605 10.3651 88.4654 10.4716L90.6813 11.0682C91.2495 11.2173 91.8816 11.4233 92.5776 11.6861C93.2807 11.9489 93.9519 12.3075 94.5911 12.7621C95.2374 13.2095 95.7701 13.7848 96.1891 14.4879C96.6081 15.1911 96.8176 16.054 96.8176 17.0767C96.8176 18.2557 96.5087 19.321 95.8908 20.2727C95.28 21.2244 94.3851 21.9808 93.2061 22.5419C92.0343 23.103 90.6103 23.3835 88.9341 23.3835C87.3716 23.3835 86.0186 23.1314 84.8752 22.6271C83.7388 22.1229 82.8439 21.4197 82.1905 20.5178C81.5442 19.6158 81.1784 18.5682 81.0932 17.375H83.8205C83.8915 18.1989 84.1685 18.8807 84.6515 19.4205C85.1415 19.9531 85.7594 20.3509 86.5051 20.6136C87.258 20.8693 88.0676 20.9972 88.9341 20.9972C89.9426 20.9972 90.8482 20.8338 91.6507 20.5071C92.4533 20.1733 93.089 19.7116 93.5577 19.1222C94.0265 18.5256 94.2608 17.8295 94.2608 17.0341C94.2608 16.3097 94.0584 15.7202 93.6536 15.2656C93.2488 14.8111 92.7161 14.4418 92.0556 14.1577C91.3951 13.8736 90.6813 13.625 89.9142 13.4119L87.2296 12.6449C85.525 12.1548 84.1756 11.4553 83.1813 10.5462C82.187 9.63707 81.6898 8.44744 81.6898 6.97727C81.6898 5.75568 82.0201 4.69034 82.6806 3.78125C83.3482 2.86506 84.2431 2.15483 85.3652 1.65057C86.4945 1.1392 87.7551 0.883522 89.1472 0.883522C90.5534 0.883522 91.8034 1.13565 92.8972 1.63991C93.9909 2.13707 94.8574 2.81889 95.4966 3.68537C96.1429 4.55185 96.4838 5.53551 96.5194 6.63636H93.9625ZM109.599 23V1.18182H117.227C118.747 1.18182 120 1.4446 120.988 1.97017C121.975 2.48864 122.71 3.18821 123.193 4.06889C123.676 4.94247 123.917 5.91193 123.917 6.97727C123.917 7.91477 123.75 8.68892 123.417 9.29972C123.09 9.91051 122.657 10.3935 122.117 10.7486C121.584 11.1037 121.005 11.3665 120.38 11.5369V11.75C121.048 11.7926 121.719 12.027 122.394 12.4531C123.069 12.8793 123.633 13.4901 124.088 14.2855C124.542 15.081 124.77 16.054 124.77 17.2045C124.77 18.2983 124.521 19.282 124.024 20.1555C123.527 21.0291 122.742 21.7216 121.669 22.233C120.597 22.7443 119.201 23 117.483 23H109.599ZM112.241 20.6562H117.483C119.208 20.6562 120.434 20.3224 121.158 19.6548C121.89 18.9801 122.255 18.1634 122.255 17.2045C122.255 16.4659 122.067 15.7841 121.691 15.1591C121.314 14.527 120.778 14.0227 120.082 13.6463C119.386 13.2628 118.562 13.071 117.61 13.071H112.241V20.6562ZM112.241 10.7699H117.142C117.937 10.7699 118.654 10.6136 119.294 10.3011C119.94 9.98864 120.451 9.5483 120.828 8.98011C121.211 8.41193 121.403 7.74432 121.403 6.97727C121.403 6.01847 121.069 5.20526 120.402 4.53764C119.734 3.86293 118.676 3.52557 117.227 3.52557H112.241V10.7699ZM147.52 12.0909C147.52 14.392 147.104 16.3807 146.273 18.0568C145.442 19.733 144.303 21.0256 142.854 21.9347C141.405 22.8438 139.75 23.2983 137.889 23.2983C136.028 23.2983 134.374 22.8438 132.925 21.9347C131.476 21.0256 130.336 19.733 129.505 18.0568C128.674 16.3807 128.259 14.392 128.259 12.0909C128.259 9.78977 128.674 7.80114 129.505 6.125C130.336 4.44886 131.476 3.15625 132.925 2.24716C134.374 1.33807 136.028 0.883522 137.889 0.883522C139.75 0.883522 141.405 1.33807 142.854 2.24716C144.303 3.15625 145.442 4.44886 146.273 6.125C147.104 7.80114 147.52 9.78977 147.52 12.0909ZM144.963 12.0909C144.963 10.2017 144.647 8.60724 144.015 7.30753C143.39 6.00781 142.541 5.02415 141.469 4.35653C140.403 3.68892 139.21 3.35511 137.889 3.35511C136.568 3.35511 135.371 3.68892 134.299 4.35653C133.234 5.02415 132.385 6.00781 131.753 7.30753C131.128 8.60724 130.815 10.2017 130.815 12.0909C130.815 13.9801 131.128 15.5746 131.753 16.8743C132.385 18.174 133.234 19.1577 134.299 19.8253C135.371 20.4929 136.568 20.8267 137.889 20.8267C139.21 20.8267 140.403 20.4929 141.469 19.8253C142.541 19.1577 143.39 18.174 144.015 16.8743C144.647 15.5746 144.963 13.9801 144.963 12.0909ZM151.832 23H149.062L157.073 1.18182H159.801L167.812 23H165.042L158.522 4.63352H158.352L151.832 23ZM152.855 14.4773H164.019V16.821H152.855V14.4773ZM171.21 23V1.18182H178.583C180.287 1.18182 181.686 1.47301 182.78 2.0554C183.874 2.63068 184.683 3.42258 185.209 4.43111C185.735 5.43963 185.997 6.58665 185.997 7.87216C185.997 9.15767 185.735 10.2976 185.209 11.2919C184.683 12.2862 183.877 13.0675 182.791 13.6357C181.704 14.1967 180.316 14.4773 178.625 14.4773H172.659V12.0909H178.54C179.705 12.0909 180.642 11.9205 181.352 11.5795C182.07 11.2386 182.588 10.7557 182.908 10.1307C183.235 9.49858 183.398 8.74574 183.398 7.87216C183.398 6.99858 183.235 6.23508 182.908 5.58168C182.581 4.92827 182.059 4.42401 181.342 4.06889C180.624 3.70668 179.676 3.52557 178.497 3.52557H173.852V23H171.21ZM181.48 13.1989L186.85 23H183.781L178.497 13.1989H181.48ZM197.133 23H190.4V1.18182H197.431C199.548 1.18182 201.359 1.61861 202.864 2.49219C204.37 3.35866 205.524 4.60511 206.327 6.23153C207.129 7.85085 207.531 9.78977 207.531 12.0483C207.531 14.321 207.126 16.2777 206.316 17.9183C205.506 19.5518 204.327 20.8089 202.779 21.6896C201.231 22.5632 199.349 23 197.133 23ZM193.042 20.6562H196.962C198.766 20.6562 200.261 20.3082 201.447 19.6122C202.634 18.9162 203.518 17.9254 204.1 16.6399C204.683 15.3544 204.974 13.8239 204.974 12.0483C204.974 10.2869 204.686 8.7706 204.111 7.49929C203.536 6.22088 202.676 5.24077 201.533 4.55895C200.389 3.87003 198.965 3.52557 197.261 3.52557H193.042V20.6562Z" fill="#2196F3"/>
</svg>
